<?xml version="1.0" standalone="no"?>
<!DOCTYPE svg PUBLIC "-//W3C//DTD SVG 20010904//EN"
 "http://www.w3.org/TR/2001/REC-SVG-20010904/DTD/svg10.dtd">
<svg version="1.0" xmlns="http://www.w3.org/2000/svg"
 width="1024.000000pt" height="1024.000000pt" viewBox="0 0 1024.000000 1024.000000"
 preserveAspectRatio="xMidYMid meet">
<metadata>
Created by potrace 1.11, written by Peter Selinger 2001-2013
</metadata>
<g transform="translate(0.000000,1024.000000) scale(0.100000,-0.100000)"
fill="#000000" stroke="none">
<path d="M8787 9524 c-1 -1 -40 -4 -87 -7 -93 -6 -245 -46 -300 -79 -321 -192
-469 -446 -456 -781 9 -215 96 -407 253 -558 170 -163 332 -231 558 -233 242
-2 416 68 589 237 135 132 192 225 231 382 19 75 23 112 21 225 -3 157 -13
203 -71 325 -83 178 -205 306 -376 397 -65 34 -78 39 -149 59 -35 10 -208 37
-213 33z"/>
<path d="M1349 9516 c-2 -2 -20 -7 -40 -10 -260 -41 -545 -289 -627 -546 -31
-98 -40 -161 -37 -279 3 -135 12 -191 42 -261 21 -48 1967 -3942 1996 -3995 6
-11 12 -22 12 -25 1 -3 37 -75 80 -160 44 -85 81 -162 83 -170 3 -8 8 -19 12
-25 9 -11 1084 -2161 1258 -2515 111 -226 205 -392 276 -485 113 -150 353
-296 526 -320 49 -7 316 -8 370 -1 52 6 195 56 255 89 11 6 29 15 40 21 24 14
73 46 100 66 42 32 155 151 182 191 55 82 215 397 1148 2264 520 1040 965
1926 989 1970 61 116 132 289 150 372 34 154 14 352 -49 491 -58 126 -189 285
-300 364 -175 124 -423 172 -640 124 -167 -36 -351 -154 -472 -301 -26 -32
-152 -270 -347 -657 -168 -334 -310 -616 -315 -625 -6 -10 -30 -58 -54 -108
-39 -81 -857 -1708 -861 -1712 -3 -4 -853 1682 -2078 4127 -454 905 -839 1669
-857 1699 -129 216 -318 357 -541 404 -59 12 -291 22 -301 13z"/>
</g>
</svg>
